<svg xmlns="http://www.w3.org/2000/svg" width="900" height="540" viewBox="0 0 900 540"><rect x="0" y="0" width="900" height="540" fill="#FFFFFF"/><text x="450.00" y="42.00" font-size="26" font-family="Helvetica, Arial, sans-serif" font-weight="bold" text-anchor="middle" fill="#222222">Outcome Breakdown</text><line x1="100.00" y1="120.00" x2="100.00" y2="430.00" stroke="#444444" stroke-width="2"/><line x1="100.00" y1="430.00" x2="820.00" y2="430.00" stroke="#444444" stroke-width="2"/><line x1="100.00" y1="430.00" x2="820.00" y2="430.00" stroke="#E6E6E6" stroke-width="1"/><text x="60.00" y="435.00" font-size="14" font-family="Helvetica, Arial, sans-serif" font-weight="normal" text-anchor="middle" fill="#222222">0</text><line x1="100.00" y1="365.00" x2="820.00" y2="365.00" stroke="#E6E6E6" stroke-width="1"/><text x="60.00" y="370.00" font-size="14" font-family="Helvetica, Arial, sans-serif" font-weight="normal" text-anchor="middle" fill="#222222">2</text><line x1="100.00" y1="300.00" x2="820.00" y2="300.00" stroke="#E6E6E6" stroke-width="1"/><text x="60.00" y="305.00" font-size="14" font-family="Helvetica, Arial, sans-serif" font-weight="normal" text-anchor="middle" fill="#222222">4</text><line x1="100.00" y1="235.00" x2="820.00" y2="235.00" stroke="#E6E6E6" stroke-width="1"/><text x="60.00" y="240.00" font-size="14" font-family="Helvetica, Arial, sans-serif" font-weight="normal" text-anchor="middle" fill="#222222">7</text><line x1="100.00" y1="170.00" x2="820.00" y2="170.00" stroke="#E6E6E6" stroke-width="1"/><text x="60.00" y="175.00" font-size="14" font-family="Helvetica, Arial, sans-serif" font-weight="normal" text-anchor="middle" fill="#222222">9</text><rect x="220.00" y="401.11" width="120.00" height="28.89" fill="#2C7FB8" rx="8" ry="8" stroke="#444444" stroke-width="1"/><text x="280.00" y="391.11" font-size="16" font-family="Helvetica, Arial, sans-serif" font-weight="normal" text-anchor="middle" fill="#222222">1</text><text x="280.00" y="458.00" font-size="16" font-family="Helvetica, Arial, sans-serif" font-weight="normal" text-anchor="middle" fill="#222222">Defended</text><rect x="520.00" y="170.00" width="120.00" height="260.00" fill="#D95F02" rx="8" ry="8" stroke="#444444" stroke-width="1"/><text x="580.00" y="160.00" font-size="16" font-family="Helvetica, Arial, sans-serif" font-weight="normal" text-anchor="middle" fill="#222222">9</text><text x="580.00" y="458.00" font-size="16" font-family="Helvetica, Arial, sans-serif" font-weight="normal" text-anchor="middle" fill="#222222">Bypass</text></svg>